<svg width="53" height="58" viewBox="0 0 53 58" fill="none" xmlns="http://www.w3.org/2000/svg">
<path d="M26.2899 0.741422C26.2899 0.741406 26.2899 0.741391 26.2899 0.741375C26.3024 0.626024 26.3441 0.572007 26.3731 0.546324C26.4062 0.517068 26.4508 0.5 26.5 0.5C26.5492 0.5 26.5938 0.517068 26.6269 0.546324C26.6559 0.572007 26.6976 0.626024 26.7101 0.741375C26.7101 0.741391 26.7101 0.741406 26.7101 0.741422L27.5439 8.43114C28.6422 18.5606 35.9497 26.5979 45.2805 27.8095L52.3073 28.7219C52.3073 28.7219 52.3073 28.7219 52.3073 28.7219C52.3765 28.7309 52.4137 28.759 52.4408 28.7957C52.4739 28.8404 52.5 28.9127 52.5 29C52.5 29.0873 52.4739 29.1596 52.4408 29.2043C52.4137 29.241 52.3765 29.2691 52.3073 29.2781C52.3073 29.2781 52.3073 29.2781 52.3073 29.2781L45.2805 30.1905C35.9497 31.4021 28.6422 39.4395 27.5439 49.5688L26.7101 57.2585C26.7101 57.2585 26.7101 57.2585 26.7101 57.2585C26.6976 57.3739 26.6559 57.428 26.6269 57.4537C26.5938 57.4829 26.5491 57.5 26.5 57.5C26.4509 57.5 26.4062 57.4829 26.3731 57.4537C26.3441 57.428 26.3024 57.3739 26.2899 57.2585C26.2899 57.2585 26.2899 57.2585 26.2899 57.2585L25.4561 49.5688C24.3579 39.4394 17.0503 31.4021 7.71945 30.1905L0.692652 29.2781C0.692633 29.2781 0.692615 29.2781 0.692596 29.2781C0.623475 29.2691 0.586295 29.241 0.559192 29.2043C0.526132 29.1596 0.5 29.0874 0.5 29C0.5 28.9126 0.526132 28.8404 0.559192 28.7957C0.586295 28.759 0.623475 28.7309 0.692596 28.7219C0.692615 28.7219 0.692633 28.7219 0.692652 28.7219L7.71945 27.8095C17.0503 26.5979 24.3579 18.5606 25.4561 8.43114L26.2899 0.741422Z" stroke="black"/>
</svg>
